<?xml version="1.0" encoding="UTF-8"?>
<svg version="1.1" xmlns="http://www.w3.org/2000/svg" width="512" height="512">
<path d="M0 0 C1.27449294 -0.00644889 2.54898589 -0.01289778 3.86209983 -0.0195421 C5.26384756 -0.01660025 6.66559489 -0.01346485 8.0673418 -0.01015663 C9.56626054 -0.0138953 11.06517732 -0.01849769 12.56409103 -0.02388728 C16.67530353 -0.03610608 20.78643458 -0.03585813 24.89766109 -0.03349853 C29.3347679 -0.03309007 33.7718487 -0.0441323 38.20894337 -0.05361366 C46.89959529 -0.07021891 55.59022009 -0.07572301 64.28088655 -0.07683842 C71.34679195 -0.0777892 78.4126884 -0.08190098 85.47859097 -0.08823967 C105.51931085 -0.10585143 125.56000932 -0.11507874 145.600737 -0.11357872 C147.22097083 -0.11345885 147.22097083 -0.11345885 148.87393665 -0.11333656 C149.95541419 -0.1132548 151.03689174 -0.11317304 152.15114132 -0.1130888 C169.6733797 -0.11227611 187.19553206 -0.13140982 204.71774556 -0.1596133 C222.71686877 -0.18835535 240.71595004 -0.20215284 258.71509677 -0.20042574 C268.81721555 -0.19976226 278.91924419 -0.20523625 289.02134228 -0.22678185 C297.62354883 -0.2450111 306.22562438 -0.2493267 314.8278419 -0.235763 C319.21417106 -0.22924193 323.60024903 -0.22908487 327.98655415 -0.2464695 C332.00802515 -0.26224373 336.02904672 -0.25929258 340.05050705 -0.24190123 C341.49935975 -0.23884085 342.94824636 -0.24242725 344.39705905 -0.25362138 C360.11515558 -0.36694825 371.63711432 3.74821925 383.17496204 14.38226891 C391.48233166 22.98010599 395.81481134 34.19590482 395.74473095 46.08725262 C395.74823702 46.84872497 395.7517431 47.61019733 395.75535542 48.3947446 C395.76464989 50.9430937 395.75975117 53.49121328 395.75488758 56.03957176 C395.75862482 57.88639868 395.76322663 59.73322401 395.76861823 61.58004683 C395.78085442 66.65284846 395.78058702 71.72558417 395.77822948 76.79839718 C395.77782147 82.27023786 395.78885887 87.74205735 395.79834461 93.21388817 C395.81495873 103.93322062 395.82045434 114.65253107 395.82156937 125.37187532 C395.8225196 134.08444122 395.82662863 142.79699985 395.83297062 151.50956345 C395.85058374 176.20876554 395.85982147 200.9079525 395.85830967 225.60716061 C395.85826978 226.27270922 395.85822989 226.93825784 395.85818879 227.6239746 C395.85810792 228.96987569 395.85802432 230.31577677 395.85793801 231.66167786 C395.85671251 252.60152829 395.87172621 273.54131396 395.89908314 294.48114586 C395.92981279 318.0122045 395.94698978 341.54323087 395.94515669 365.07431239 C395.94449249 377.5316221 395.94999801 389.98885876 395.97151279 402.44615173 C395.98971215 413.05177159 395.99408208 423.65728528 395.98049395 434.26291398 C395.97395822 439.6737628 395.97386914 445.08440784 395.99120045 450.49523735 C396.00690905 455.45042199 396.00408999 460.4052409 395.98663218 465.36041649 C395.98355745 467.15108828 395.98721248 468.94178721 395.99835233 470.73242698 C396.07699088 484.27177117 394.63793284 493.9088427 385.00308704 504.05414391 C375.97837499 511.95777371 365.9951884 512.92620764 354.50650501 512.41449547 C345.41365393 511.70641855 337.8109434 505.41011653 330.44058704 500.51508141 C324.89755663 496.84310657 319.25809251 493.33118472 313.61246204 489.81976891 C311.5419921 488.52965697 309.47167835 487.23929433 307.40152454 485.94867516 C306.39895618 485.32364098 305.39638783 484.6986068 304.36343861 484.05463219 C300.22858341 481.47052319 296.1069925 478.86571488 291.98746204 476.25726891 C284.836938 471.73126168 277.66619629 467.23838844 270.48746204 462.75726891 C259.37133215 455.8174909 248.28757722 448.82777585 237.21500111 441.81879234 C224.54842543 433.80258977 211.85262473 425.83401941 199.13052845 417.90619469 C196.83431394 416.47365887 194.54115521 415.03641634 192.24918079 413.59711266 C191.09958785 412.8794298 189.94986409 412.1619564 188.79996204 411.44476891 C187.86796986 410.86082359 186.93597767 410.27687828 185.97574329 409.67523766 C181.09657093 406.89479877 177.58740188 405.72894307 172.03824329 406.54633141 C167.33625939 407.85683841 163.4186908 410.45132441 159.33658314 413.07074547 C157.28814902 414.38516187 155.22658467 415.67732311 153.16324329 416.96820641 C149.08354957 419.52694105 145.01688018 422.10568444 140.95328236 424.68988609 C137.07297025 427.15638151 133.18696848 429.6138407 129.29996204 432.06976891 C128.14451893 432.8000631 128.14451893 432.8000631 126.96573353 433.5451107 C119.46059384 438.28370985 111.931078 442.9830855 104.40201283 447.68353844 C95.07611078 453.50830971 85.77800488 459.37631936 76.48746204 465.25726891 C65.15455892 472.43104041 53.8006017 479.56958376 42.42178822 486.67035484 C36.78722801 490.18838665 31.16223271 493.72069543 25.55069447 497.27533531 C21.86681386 499.60879168 18.17834394 501.93490573 14.48746204 504.25726891 C13.43687611 504.91855797 12.38629017 505.57984703 11.30386829 506.26117516 C10.0025597 507.06361656 10.0025597 507.06361656 8.67496204 507.88226891 C7.98789173 508.30765953 7.30082142 508.73305016 6.59293079 509.17133141 C-1.87916687 513.54098475 -12.25262736 513.4797154 -21.49300671 511.67523766 C-30.89349556 508.40225346 -38.20029289 501.03813205 -42.67269421 492.30023766 C-44.51935877 487.80811873 -44.65689387 483.61666043 -44.64675903 478.8020153 C-44.65028738 477.66589786 -44.65028738 477.66589786 -44.653887 476.50682855 C-44.66057435 473.95426734 -44.66011886 471.40175708 -44.65970898 468.84918785 C-44.66300777 467.00637659 -44.66673337 465.16356605 -44.67085046 463.32075644 C-44.68087691 458.24505504 -44.68458829 453.16936548 -44.68723977 448.09365559 C-44.69114094 442.62377418 -44.70071945 437.15390215 -44.70945263 431.68402672 C-44.72922301 418.46787252 -44.73928428 405.25171755 -44.74818042 392.03555226 C-44.75256265 385.81286205 -44.75792965 379.59017268 -44.76316929 373.36748314 C-44.78018264 352.68320711 -44.79470164 331.99893154 -44.80191803 311.31464958 C-44.80239279 309.97694189 -44.80286867 308.6392342 -44.80334569 307.30152652 C-44.80358207 306.63814895 -44.80381844 305.97477138 -44.80406198 305.29129145 C-44.80526317 301.93034123 -44.80647862 298.569391 -44.80770397 295.20844078 C-44.80794412 294.54145191 -44.80818427 293.87446304 -44.8084317 293.18726238 C-44.81632204 271.56903501 -44.83974795 249.95086256 -44.87225992 228.33265916 C-44.90657771 205.47191171 -44.92626989 182.6111882 -44.92956227 159.75041342 C-44.93172764 147.29075471 -44.9404802 134.83117668 -44.96602345 122.37154198 C-44.98772745 111.76005651 -44.99578231 101.14867133 -44.98605666 90.53716618 C-44.98151106 85.12406108 -44.98341357 79.71116291 -45.00281811 74.29808617 C-45.02044369 69.33836635 -45.01945676 64.37900453 -45.00392082 59.41928095 C-45.00154384 57.62915412 -45.00587293 55.83900254 -45.01774947 54.04891354 C-45.12120208 37.42022682 -41.91430109 25.07620268 -30.38753796 12.56976891 C-22.25850805 4.71536838 -11.32123639 0.01454512 0 0 Z M-20.51253796 27.25726891 C-25.59100952 34.01055556 -27.82029173 40.3872404 -27.76980686 48.88167381 C-27.77331294 49.63306047 -27.77681901 50.38444712 -27.78043133 51.15860307 C-27.78974179 53.67862612 -27.78482296 56.1984179 -27.77996349 58.71845055 C-27.78369991 60.5425164 -27.7883014 62.36658065 -27.79369414 64.19064236 C-27.80594019 69.20501654 -27.80566179 74.21932408 -27.80330539 79.23370981 C-27.80289764 84.64073308 -27.81393223 90.04773487 -27.82342052 95.45474815 C-27.84003932 106.04787908 -27.84553043 116.64098775 -27.84664528 127.23413062 C-27.84759515 135.84187306 -27.85170239 144.44960814 -27.85804653 153.05734825 C-27.87565983 177.45069667 -27.88488504 201.84402747 -27.88338558 226.23738229 C-27.88330567 227.55266558 -27.88322576 228.86794886 -27.88314342 230.22308922 C-27.88306166 231.53997408 -27.8829799 232.85685893 -27.88289566 234.21364939 C-27.8820823 255.5681834 -27.90123233 276.92264115 -27.92942016 298.27715552 C-27.95812104 320.19283997 -27.97196206 342.10849003 -27.97023261 364.02419376 C-27.96956783 376.33272019 -27.97509863 388.64117271 -27.99658871 400.94968224 C-28.01476354 411.42661684 -28.01917818 421.90344403 -28.00556986 432.38038754 C-27.99902206 437.72795142 -27.99898834 443.07530899 -28.01627636 448.42285347 C-28.03193172 453.31557306 -28.02922098 458.20792148 -28.0117081 463.10063159 C-28.00862156 464.87309264 -28.01233234 466.64558088 -28.02342825 468.41800988 C-28.03749263 470.82341378 -28.02700891 473.22750544 -28.0103159 475.632864 C-28.02522043 476.67032928 -28.02522043 476.67032928 -28.04042608 477.72875345 C-27.95678401 483.41118845 -25.80563289 486.8968949 -21.91488171 490.90180016 C-18.06127959 493.97440557 -15.23181694 495.40476218 -10.32503796 495.56976891 C-9.60960827 495.60715172 -8.89417858 495.64453453 -8.15706921 495.68305016 C-1.03286997 494.53602251 5.33914268 489.59052271 11.29996204 485.75726891 C12.99001693 484.68036864 14.68012247 483.60354788 16.37027454 482.52680016 C17.22395618 481.98104332 18.07763783 481.43528648 18.95718861 480.87299156 C22.85498131 478.38403053 26.76449328 475.91374951 30.67496204 473.44476891 C31.82992176 472.71483727 31.82992176 472.71483727 33.008214 471.97015953 C40.51714222 467.22880552 48.05057557 462.52686839 55.58389759 457.82440758 C61.72967052 453.986303 67.86497227 450.13239536 73.98746204 446.25726891 C81.13807871 441.7314069 88.3087267 437.23838912 95.48746204 432.75726891 C102.76892057 428.21146869 110.04390235 423.65601743 117.29996204 419.06976891 C118.06147572 418.58854576 118.82298939 418.10732262 119.60757923 417.61151695 C123.52727033 415.13308541 127.44403859 412.65011371 131.35855579 410.16351891 C136.05892701 407.17991504 140.77020065 404.21408058 145.48746204 401.25726891 C146.19483509 400.81157555 146.90220814 400.36588219 147.63101673 399.90668297 C158.52276186 393.069116 168.12559438 387.29773404 181.48746204 389.25726891 C190.09864742 391.63276832 197.30952289 395.87156506 204.79996204 400.63226891 C205.93949837 401.34631401 207.07956358 402.05951569 208.22012806 402.77191734 C211.65142478 404.91988033 215.06996581 407.08741413 218.48746204 409.25726891 C219.48938587 409.89116539 220.4913097 410.52506187 221.52359486 411.17816734 C227.00963241 414.64998955 232.4835659 418.14039171 237.95279408 421.63861656 C250.11227887 429.40372773 262.34611907 437.05095525 274.58463001 444.69061852 C281.49222451 449.00441955 288.38342389 453.34322074 295.26480579 457.69867516 C302.67493772 462.38467764 310.11251189 467.02641274 317.54996204 471.66889 C324.79722145 476.19492491 332.02953671 480.74396211 339.24918079 485.31390953 C340.64699565 486.19868305 342.04540483 487.08251852 343.44449329 487.96527672 C344.86132924 488.86129677 346.27519697 489.7620209 347.68668079 490.66644859 C348.74822376 491.34175621 348.74822376 491.34175621 349.83121204 492.03070641 C350.46220814 492.43466637 351.09320423 492.83862633 351.74332142 493.2548275 C356.14503883 495.78470595 360.56426213 495.70560154 365.48746204 495.25726891 C370.92936004 493.44330291 374.26579454 489.87464253 377.48746204 485.25726891 C378.64937243 481.77153773 378.62940212 478.65398951 378.62168312 475.0287981 C378.62403535 474.28375974 378.62638758 473.53872138 378.62881109 472.77110609 C378.63551032 470.25463334 378.63504259 467.73821212 378.63463306 465.22173119 C378.63793112 463.40723118 378.64165657 461.59273191 378.64577454 459.77823359 C378.65580941 454.77622262 378.65951373 449.77422365 378.66216385 444.77220404 C378.66606254 439.38346191 378.67564123 433.99472932 378.68437672 428.60599327 C378.7041542 415.58372378 378.71420929 402.5614535 378.72310451 389.53917274 C378.7274856 383.4093671 378.7328529 377.27956233 378.73809338 371.14975739 C378.75510749 350.77691229 378.7696019 330.40406773 378.77684212 310.03121662 C378.77875207 304.74239094 378.78067239 299.45356527 378.78262806 294.16473961 C378.7831118 292.8501981 378.78359554 291.5356566 378.78409394 290.1812805 C378.79239509 268.88422498 378.81773264 247.58723907 378.85020874 226.29020541 C378.88326719 204.43336116 378.90128981 182.57654546 378.90448636 160.71967608 C378.90665266 148.4445072 378.91541879 136.1694202 378.94094753 123.89427567 C378.96263797 113.4404449 378.9707131 102.98671588 378.96098075 92.53286516 C378.95643119 87.19899907 378.95836057 81.86534298 378.9777422 76.53150558 C378.99533963 71.64648232 378.9944038 66.76182278 378.9788449 61.87679584 C378.97646364 60.11157354 378.98081924 58.34632628 378.99267355 56.58114218 C379.06976838 44.34091579 378.24253676 34.33621698 369.48746204 25.01508141 C363.14485028 19.44052028 356.76822723 17.13684561 348.43218517 17.12304783 C346.55890594 17.11636106 346.55890594 17.11636106 344.64778268 17.10953921 C343.25941204 17.10962851 341.8710414 17.10981835 340.48267078 17.11009789 C339.00966597 17.10679832 337.53666207 17.10307255 336.06365931 17.09895641 C332.01023805 17.08893887 327.95683159 17.08522001 323.90339971 17.0825671 C319.53377004 17.07866332 315.1641521 17.06908504 310.79452991 17.06035423 C300.2391448 17.04059204 289.68375873 17.03052398 279.12835974 17.02162644 C274.15763247 17.0172432 269.18690627 17.01187649 264.21617985 17.00663757 C247.69240445 16.98962564 231.16862972 16.9751314 214.64484692 16.96788883 C210.35687096 16.96597894 206.06889501 16.96405861 201.78091908 16.96210289 C200.7151641 16.96161915 199.64940912 16.96113541 198.55135854 16.96063701 C181.28624315 16.95233643 164.02119704 16.92699888 146.7561119 16.89452221 C129.03056107 16.8614512 111.30504545 16.84344004 93.5794636 16.84024459 C83.62714602 16.83807955 73.67492946 16.82933172 63.72264194 16.80378342 C55.24694024 16.78207588 46.77136412 16.77402628 38.29563777 16.7837502 C33.97235406 16.78829472 29.64932945 16.78639989 25.32608128 16.76698875 C21.36443118 16.74935505 17.40322916 16.75035627 13.44157429 16.76588605 C12.01217943 16.76826182 10.58275352 16.7639401 9.15340607 16.7520574 C-2.45448269 16.66157237 -12.44778586 18.28728954 -20.51253796 27.25726891 Z " fill="#008DDE" transform="translate(80.5125379562378,-0.25726890563964844)"/>
</svg>
